<svg width="46" height="47" viewBox="0 0 46 47" fill="none" xmlns="http://www.w3.org/2000/svg">
<path d="M36.5222 46.035H9.47784C4.26533 46.035 0 41.7696 0 36.5571V9.51281C0 4.30031 4.26533 0.0349731 9.47784 0.0349731H36.5222C41.7347 0.0349731 46 4.30031 46 9.51281V36.5571C46 41.7696 41.7347 46.035 36.5222 46.035Z" fill="#161C21"/>
<path d="M32.1388 21.6937C30.2383 22.7773 28.3379 23.8609 26.3967 24.969C26.3967 27.2097 26.3967 29.4299 26.3967 31.695C25.2682 32.359 24.1703 33.0047 23.0133 33.6851C21.9215 33.0495 20.8236 32.4099 19.6667 31.7357C19.6667 29.5195 19.6667 27.2993 19.6667 25.0098C17.7173 23.8956 15.7945 22.7936 13.8696 21.6937C13.4337 21.2802 13.6781 20.7526 13.6944 20.2984C13.7249 19.4266 13.4561 18.5283 13.8492 17.6789C14.9552 17.0352 16.0593 16.3915 17.2122 15.7193C19.1391 16.8295 21.062 17.9376 23.0052 19.0579C24.924 17.9498 26.8204 16.8539 28.7779 15.7234C29.9022 16.3712 31.0368 17.025 32.1693 17.6768C32.4301 19.0171 32.4871 20.3574 32.1388 21.6937Z" fill="#F0B900"/>
<path d="M32.1714 10.9692C30.9553 11.6862 29.89 12.3136 28.7962 12.9593C26.8672 11.8451 24.9464 10.737 22.997 9.61262C21.011 10.7655 19.0617 11.896 17.1999 12.9756C16.1204 12.3319 15.0449 11.6883 13.837 10.9692C16.9637 9.1482 19.9518 7.40866 22.997 5.63653C26.0036 7.38422 28.9978 9.12376 32.1714 10.9692Z" fill="#F0B900"/>
<path d="M11.5617 29.6275C12.3174 30.3547 13.2911 30.7397 14.1669 31.2754C15.1712 31.8885 16.1957 32.467 17.2285 33.0719C17.2285 34.343 17.2285 35.5814 17.2285 36.9951C14.1221 35.2698 11.1828 33.4834 8.15597 31.7561C8.15597 28.2342 8.15597 24.7103 8.15597 21.0968C9.30887 21.7446 10.3905 22.3495 11.4701 22.9545C11.7328 23.1338 11.7349 23.4149 11.7369 23.6817C11.7491 25.4722 11.7512 27.2647 11.7369 29.0551C11.7349 29.2629 11.688 29.4584 11.5617 29.6275Z" fill="#F0B900"/>
<path d="M34.5546 22.9545C35.6321 22.3455 36.7117 21.7385 37.8646 21.0866C37.8646 24.6716 37.8646 28.1467 37.8646 31.7357C34.9294 33.4488 31.9371 35.1924 28.7717 37.0379C28.7371 35.6242 28.7554 34.3654 28.7575 33.076C30.4217 32.1085 32.0573 31.1674 33.6787 30.204C33.9517 30.041 34.3244 29.988 34.4548 29.6255C34.2653 27.4398 34.3957 25.2522 34.3937 23.0645C34.3937 23.0278 34.4976 22.9891 34.5546 22.9545Z" fill="#F0B900"/>
<path d="M19.6707 38.4881C19.6707 37.1743 19.6707 35.9359 19.6707 34.6078C20.8725 35.1007 21.8462 35.8788 23.0174 36.437C24.0644 35.8361 25.1358 35.2229 26.303 34.5548C26.303 35.889 26.303 37.1377 26.303 38.4943C25.2723 39.1033 24.1805 39.749 23.0215 40.4334C21.9277 39.7999 20.8318 39.1624 19.6707 38.4881Z" fill="#F0B900"/>
<path d="M11.4599 20.2698C10.3559 19.6139 9.25184 18.9581 8.1356 18.294C8.1356 16.9598 8.1356 15.6562 8.1356 14.3057C9.23554 13.66 10.3314 13.0163 11.4599 12.3564C12.5456 12.9878 13.617 13.6111 14.7373 14.2629C14.5275 14.6418 14.1527 14.7253 13.8716 14.9209C13.1139 15.4444 12.1871 15.7153 11.5638 16.4424C11.7858 17.7237 11.9895 19.0069 11.4599 20.2698Z" fill="#F0B900"/>
<path d="M31.1712 14.3302C32.3445 13.6417 33.4139 13.0123 34.5342 12.3543C35.6362 12.996 36.7341 13.6356 37.8605 14.2935C37.8605 15.6053 37.8605 16.915 37.8605 18.3062C36.8339 18.9051 35.7706 19.5264 34.6014 20.2087C34.3998 18.8562 34.5851 17.6218 34.467 16.3039C33.4322 15.6847 32.3486 15.0349 31.1712 14.3302Z" fill="#F0B900"/>
<path d="M32.1592 28.389C31.0857 28.9981 30.0143 29.6071 28.8471 30.2712C28.8471 28.9329 28.8471 27.6843 28.8471 26.3501C29.9063 25.7125 31.0185 25.0403 32.1306 24.3702C32.5625 24.6228 32.3384 25.0424 32.3221 25.3581C32.2651 26.3704 32.5543 27.4011 32.1592 28.389Z" fill="#F0B900"/>
<path d="M13.7942 24.5617C13.9633 24.525 14.1181 24.5331 14.2769 24.6289C15.2302 25.1972 16.1876 25.7573 17.1674 26.3358C17.1674 27.6211 17.1674 28.8901 17.1674 30.2834C16.0124 29.6214 14.939 29.0062 13.8655 28.3911C13.4907 27.12 13.6435 25.8408 13.7942 24.5617Z" fill="#F0B900"/>
<path d="M19.6178 14.3342C20.8073 13.6376 21.8808 13.0082 23.0011 12.3523C24.0807 12.9837 25.1521 13.6091 26.3784 14.3261C25.201 15.0227 24.1255 15.6603 23.0113 16.3182C21.8971 15.6684 20.8033 15.0288 19.6178 14.3342Z" fill="#F0B900"/>
<path d="M37.4104 33.4406C37.4475 33.4406 37.4776 30.4166 37.4776 26.6862C37.4776 22.9558 37.4475 19.9317 37.4104 19.9317C37.3732 19.9317 37.3431 22.9558 37.3431 26.6862C37.3431 30.4166 37.3732 33.4406 37.4104 33.4406Z" fill="#F0B900"/>
<path d="M35.0414 23.3639C35.0414 25.3764 35.0414 27.3869 35.0414 29.3994C35.0068 29.3994 34.9742 29.3994 34.9396 29.4014C34.9396 27.3889 34.9396 25.3764 34.9396 23.3639C34.9742 23.3639 35.0088 23.3639 35.0414 23.3639Z" fill="#F0B900"/>
<path d="M11.0973 16.475C11.0973 17.4731 11.0973 18.4692 11.0973 19.4673C11.0627 19.4673 11.0301 19.4673 10.9955 19.4693C10.9955 18.4651 10.9955 17.4609 10.9955 16.4567C11.028 16.4628 11.0627 16.4689 11.0973 16.475Z" fill="#F0B900"/>
<path d="M34.9294 19.5202C34.9294 18.571 34.9294 17.6239 34.9294 16.6747C34.9701 16.6726 35.0109 16.6706 35.0516 16.6685C35.0516 17.6137 35.0516 18.5609 35.0516 19.506C35.0129 19.5121 34.9701 19.5162 34.9294 19.5202Z" fill="#F0B900"/>
</svg>
