<svg width="47" height="46" viewBox="0 0 47 46" fill="none" xmlns="http://www.w3.org/2000/svg">
<path d="M36.8849 45.7016H10.2326C5.09561 45.7016 0.89209 41.4981 0.89209 36.3611V9.70876C0.89209 4.5718 5.09561 0.368286 10.2326 0.368286H36.8849C42.0219 0.368286 46.2254 4.5718 46.2254 9.70876V36.3611C46.2254 41.4981 42.0219 45.7016 36.8849 45.7016Z" fill="#0153FE"/>
<path d="M39.4182 18.2764C39.886 20.0449 40.1329 21.8355 40.0827 23.6703C39.8719 31.4892 33.7232 38.3445 25.9746 39.4004C24.4952 39.6011 23.0197 39.5931 21.5382 39.4786C21.4158 39.4586 21.2933 39.4365 21.1709 39.4164C21.0505 39.4024 20.93 39.3883 20.8096 39.3743C20.7473 39.3582 20.6831 39.3421 20.6209 39.3281C20.378 39.2839 20.1331 39.2398 19.8902 39.1956C19.8279 39.1755 19.7657 39.1555 19.7035 39.1374C19.6111 39.1153 19.5188 39.0932 19.4265 39.0732C19.3823 39.0611 19.3361 39.0471 19.292 39.035L19.2639 39.019L19.2337 39.029C19.1755 39.0089 19.1173 38.9908 19.0611 38.9708C18.9728 38.9487 18.8845 38.9266 18.7961 38.9045C16.869 38.2622 15.0623 37.3889 13.4584 36.1263C10.3128 33.6511 8.2492 30.4734 7.41211 26.5549C5.1076 15.7731 13.607 5.97096 24.4831 6.53906C31.228 6.89036 37.1378 11.4271 39.2597 17.8568C39.3038 17.9954 39.364 18.1359 39.4182 18.2764ZM23.6059 17.7183C22.2288 17.7183 20.8517 17.7143 19.4766 17.7203C18.6596 17.7223 18.2381 18.1499 18.2361 18.9709C18.2321 21.6789 18.2321 24.3869 18.2361 27.0929C18.2361 27.9441 18.6556 28.3656 19.4987 28.3676C22.2067 28.3696 24.9147 28.3716 27.6207 28.3676C28.4658 28.3676 28.8834 27.9441 28.8854 27.0929C28.8874 24.401 28.8874 21.7091 28.8854 19.0171C28.8854 18.1339 28.4738 17.7203 27.6006 17.7183C26.2677 17.7163 24.9368 17.7183 23.6059 17.7183Z" fill="#FDFEFE"/>
<path d="M23.6059 17.7183C24.9368 17.7183 26.2677 17.7163 27.5986 17.7183C28.4718 17.7203 28.8834 18.1339 28.8834 19.0171C28.8854 21.7091 28.8854 24.401 28.8834 27.0929C28.8834 27.9421 28.4638 28.3656 27.6187 28.3676C24.9107 28.3696 22.2027 28.3696 19.4967 28.3676C18.6536 28.3676 18.2341 27.9441 18.2341 27.0929C18.232 24.3849 18.232 21.6769 18.2341 18.9709C18.2341 18.1499 18.6576 17.7223 19.4746 17.7203C20.8517 17.7143 22.2288 17.7183 23.6059 17.7183Z" fill="#0153FE"/>
</svg>
