<svg width="48" height="48" viewBox="0 0 48 48" fill="none" xmlns="http://www.w3.org/2000/svg">
<path d="M0.750346 31.9577C0.697358 24.1206 3.02585 16.9914 7.22394 10.4343C7.57487 9.88625 8.00477 9.49711 8.60164 9.2417C11.0511 8.19595 13.5966 7.46895 16.174 6.8244C17.2638 6.5519 17.7647 7.04964 18.0536 7.96267C18.3635 8.94105 18.9024 9.17031 19.9562 9.01445C22.5916 8.62431 25.266 8.63235 27.9045 9.01043C28.9342 9.15825 29.5341 8.9873 29.81 7.97071C30.14 6.75703 30.9118 6.61324 32.0146 6.91792C41.1226 9.43276 40.1678 8.54386 44.1789 17.1995C46.6804 22.5972 47.4232 28.3921 47.1573 34.3308C47.0983 35.641 46.6284 36.5027 45.4936 37.2247C42.7122 38.9965 39.7869 40.4273 36.7235 41.629C35.5438 42.0925 34.805 41.9387 34.2851 40.7883C34.2391 40.6858 34.1631 40.5973 34.1021 40.5017C32.6204 38.2051 32.6204 38.2071 34.9799 37.0176C35.2829 36.8647 35.5738 36.6888 35.8717 36.5259C36.1167 36.3921 36.4466 36.2383 36.2806 35.9236C36.1707 35.7144 35.8247 35.4851 35.6098 35.5073C35.1749 35.5525 34.749 35.7426 34.3331 35.9085C27.3936 38.6707 20.4561 38.6435 13.5186 35.9034C13.2556 35.7999 12.9927 35.6963 12.7357 35.5787C12.2439 35.3524 11.758 35.467 11.569 35.9185C11.352 36.4364 11.9799 36.4726 12.2568 36.6928C12.4308 36.8315 12.6698 36.8838 12.8507 37.0156C13.5096 37.4942 14.9453 37.4781 14.8423 38.2413C14.6573 39.6129 13.6595 40.7803 12.7347 41.8522C12.4548 42.177 11.9969 41.8793 11.622 41.7546C8.11375 40.5862 4.86145 38.911 1.80012 36.8336C1.12427 36.377 0.746347 35.8401 0.749346 35.0286C0.753345 34.005 0.750346 32.9814 0.750346 31.9577ZM27.4885 26.0824C27.4825 28.6817 29.2802 30.7249 31.6027 30.7591C33.9941 30.7933 35.9197 28.6817 35.8967 26.0502C35.8737 23.4911 34.0001 21.47 31.6486 21.468C29.3072 21.465 27.4955 23.474 27.4885 26.0824ZM20.3711 26.003C20.3471 23.3755 18.5465 21.4368 16.157 21.467C13.8475 21.4961 11.9999 23.5605 11.9859 26.1276C11.9719 28.6425 13.8835 30.7491 16.193 30.7642C18.6155 30.7792 20.3961 28.7511 20.3711 26.003Z" fill="#D9D9D9"/>
</svg>
