<svg width="32" height="32" viewBox="0 0 32 32" fill="none" xmlns="http://www.w3.org/2000/svg">
<path d="M2.33178 14.2692C1.38594 15.9684 0.92839 17.8961 1.00972 19.8391C1.09104 21.7821 1.70807 23.6648 2.79259 25.2791C2.95918 25.5308 3.05293 25.7255 3.02408 25.856C2.99524 25.9865 2.16375 30.3178 2.16375 30.3178C2.14375 30.4191 2.15134 30.524 2.18571 30.6214C2.22009 30.7188 2.28 30.8053 2.35918 30.8716C2.46483 30.9558 2.59621 31.0011 2.73129 31C2.80348 31.0002 2.87493 30.9854 2.94115 30.9567L6.99474 29.3702C7.27373 29.2602 7.58496 29.2654 7.86012 29.3846C9.22598 29.9168 10.7361 30.25 12.2469 30.25C14.2742 30.2521 16.266 29.7174 18.0197 28.7002M28.6206 20.6586C28.5485 20.399 28.7072 20.0384 28.8586 19.7788C28.9049 19.7016 28.9555 19.6269 29.01 19.5553C30.3054 17.6304 30.9983 15.3634 31.0004 13.0433C31.0221 6.39423 25.4115 1 18.474 1C12.4236 1 7.37551 5.11779 6.19282 10.5841C6.01589 11.3943 5.92644 12.2212 5.926 13.0505C5.926 19.7067 11.3202 25.2452 18.2577 25.2452C19.361 25.2452 20.8466 24.9134 21.6615 24.6899C22.4764 24.4663 23.2841 24.1707 23.4932 24.0913C23.7076 24.0105 23.9348 23.969 24.1639 23.9687C24.4139 23.9678 24.6615 24.0168 24.8923 24.113L28.9812 25.5625C29.0708 25.6004 29.1656 25.6247 29.2624 25.6346C29.4155 25.6346 29.5622 25.5738 29.6704 25.4656C29.7786 25.3574 29.8394 25.2107 29.8394 25.0577C29.8343 24.9917 29.8222 24.9264 29.8033 24.863L28.6206 20.6586Z" stroke="#D9D9D9" stroke-width="2" stroke-miterlimit="10" stroke-linecap="round"/>
</svg>
