<svg width="24" height="24" viewBox="0 0 24 24" fill="none" xmlns="http://www.w3.org/2000/svg">
<path d="M4.00299 14.5143C4.06687 14.3335 4.06487 14.1421 4.09282 13.9564C4.46809 11.4645 5.45518 9.22824 7.0471 7.24365C7.24172 7.00068 7.45331 6.77034 7.65891 6.53612C7.69085 6.49919 7.72179 6.42435 7.78367 6.46129C7.84655 6.49822 7.79265 6.5575 7.77269 6.60318C7.62597 6.94723 7.5092 7.30002 7.46129 7.67128C7.44532 7.79957 7.44732 7.92591 7.48026 8.05129C7.5102 8.16791 7.57607 8.25733 7.69883 8.28745C7.82758 8.31855 7.94935 8.2962 8.04416 8.1961C8.13 8.10474 8.18489 7.99492 8.23679 7.88315C8.50128 7.31751 8.69291 6.72467 8.91947 6.14542C9.32468 5.1094 9.79278 4.10738 10.5154 3.23755C11.1551 2.46879 11.9346 1.88857 12.8958 1.5523C12.9317 1.53967 12.9676 1.52801 13.0036 1.5144C13.0405 1.50079 13.0814 1.48719 13.1084 1.52217C13.1373 1.55911 13.1044 1.59312 13.0844 1.62325C12.9087 1.89441 12.766 2.18111 12.6752 2.48823C12.2969 3.76528 12.4836 4.94612 13.3399 6.00256C13.4557 6.14542 13.5984 6.26205 13.7631 6.34952C14.1723 6.56722 14.5615 6.42435 14.6963 5.99089C14.824 5.5827 14.7911 5.17257 14.6633 4.76729C14.6484 4.71967 14.5905 4.6633 14.6424 4.62151C14.7053 4.57194 14.7492 4.64775 14.7931 4.67691C15.7772 5.3339 16.2882 6.26691 16.4678 7.39429C16.5157 7.69752 16.5517 8.00561 16.6635 8.2962C16.7663 8.5625 16.9349 8.67718 17.2044 8.67621C17.4479 8.67523 17.6076 8.56055 17.6745 8.33313C17.7354 8.12807 17.7154 7.923 17.6755 7.71793C17.6665 7.66934 17.6146 7.60325 17.6775 7.57409C17.7553 7.53716 17.7723 7.62463 17.8003 7.66934C18.431 8.67523 18.9201 9.74431 19.2854 10.8668C19.6976 12.1332 19.9501 13.4248 19.995 14.7573C20.0788 17.2259 19.2305 19.3203 17.3551 20.9929C16.1175 22.0969 14.6454 22.7374 12.9756 22.9425C12.8379 22.959 12.6942 22.9415 12.5614 22.9998C12.1572 22.9998 11.752 22.9998 11.3478 22.9998C11.207 22.9366 11.0533 22.9512 10.9056 22.9298C9.43747 22.7199 8.11603 22.1776 6.96725 21.2621C5.44021 20.0453 4.49005 18.4903 4.12875 16.6C4.07785 16.3317 4.04292 16.0596 4 15.7894C4.00299 15.3647 4.00299 14.939 4.00299 14.5143ZM15.6854 15.2296C15.6943 13.2509 14.0435 11.62 12.0215 11.6113C9.95346 11.6025 8.27572 13.2032 8.26773 15.1927C8.25975 17.1909 9.91055 18.8178 11.9516 18.8246C14.0196 18.8304 15.6764 17.2356 15.6854 15.2296Z" fill="white"/>
</svg>
