<svg width="32" height="33" viewBox="0 0 32 33" fill="none" xmlns="http://www.w3.org/2000/svg">
<path d="M27.25 5.70557H4.75C3.75576 5.70656 2.80256 6.07563 2.09952 6.73179C1.39649 7.38795 1.00106 8.27761 1 9.20557V24.2056C1.00106 25.1335 1.39649 26.0232 2.09952 26.6793C2.80256 27.3355 3.75576 27.7046 4.75 27.7056H27.25C28.2442 27.7046 29.1974 27.3355 29.9005 26.6793C30.6035 26.0232 30.9989 25.1335 31 24.2056V9.20557C30.9989 8.27761 30.6035 7.38795 29.9005 6.73179C29.1974 6.07563 28.2442 5.70656 27.25 5.70557ZM26.3004 11.4949L16.6576 18.4949C16.4696 18.6314 16.2382 18.7054 16 18.7054C15.7618 18.7054 15.5304 18.6314 15.3424 18.4949L5.69955 11.4949C5.58626 11.4151 5.4911 11.315 5.4196 11.2005C5.3481 11.0861 5.30169 10.9595 5.28307 10.8281C5.26445 10.6967 5.27398 10.5632 5.31112 10.4353C5.34825 10.3075 5.41225 10.1877 5.4994 10.0831C5.58654 9.97851 5.69509 9.89111 5.81874 9.826C5.94238 9.76088 6.07866 9.71935 6.21965 9.70382C6.36065 9.68829 6.50354 9.69907 6.64003 9.73552C6.77652 9.77198 6.90389 9.83339 7.01473 9.91619L16 16.4387L24.9853 9.91619C25.2099 9.75783 25.4924 9.68837 25.7715 9.72285C26.0506 9.75732 26.304 9.89294 26.4768 10.1004C26.6496 10.3078 26.728 10.5704 26.695 10.8314C26.662 11.0924 26.5203 11.3307 26.3004 11.4949Z" fill="#E76933"/>
</svg>
