<svg width="33" height="28" viewBox="0 0 33 28" fill="none" xmlns="http://www.w3.org/2000/svg">
<path d="M11.9068 19.3273C11.5129 19.7145 11.5075 20.3476 11.8947 20.7415C12.2818 21.1353 12.915 21.1407 13.3088 20.7536L11.9068 19.3273ZM19.1458 13.6136L19.8468 14.3267L19.8474 14.3262L19.1458 13.6136ZM22.3095 13.5213L22.9683 12.7689L22.9677 12.7684L22.3095 13.5213ZM30.4106 21.9441C30.8261 22.3079 31.4578 22.266 31.8217 21.8505C32.1855 21.435 32.1436 20.8032 31.7281 20.4394L30.4106 21.9441ZM17.6753 27.586C18.0688 27.9735 18.702 27.9687 19.0895 27.5752C19.477 27.1817 19.4722 26.5486 19.0787 26.1611L17.6753 27.586ZM9.48232 18.1136L8.77991 18.8254L8.78063 18.8261L9.48232 18.1136ZM6.37342 17.9715L5.73983 17.1979L5.73872 17.1988L6.37342 17.9715ZM0.43463 21.5553C0.00784917 21.9059 -0.0539566 22.536 0.296582 22.9628C0.647118 23.3896 1.27726 23.4514 1.70404 23.1008L0.43463 21.5553ZM27.6078 0.873537L4.53088 0.873535L4.53088 2.87353L27.6078 2.87354L27.6078 0.873537ZM4.53088 0.873535C2.08128 0.873535 0.0693361 2.83321 0.0693359 5.28262L2.06934 5.28262C2.06934 3.96646 3.15696 2.87353 4.53088 2.87353L4.53088 0.873535ZM0.0693359 5.28262L0.0693343 23.4644L2.06933 23.4644L2.06934 5.28262L0.0693359 5.28262ZM0.0693343 23.4644C0.0693341 25.9139 2.08128 27.8735 4.53087 27.8735L4.53087 25.8735C3.15695 25.8735 2.06933 24.7806 2.06933 23.4644L0.0693343 23.4644ZM4.53087 27.8735L27.6078 27.8735L27.6078 25.8735L4.53087 25.8735L4.53087 27.8735ZM27.6078 27.8735C30.0574 27.8735 32.0693 25.9139 32.0693 23.4644L30.0693 23.4644C30.0693 24.7806 28.9817 25.8735 27.6078 25.8735L27.6078 27.8735ZM32.0693 23.4644L32.0693 5.28263L30.0693 5.28263L30.0693 23.4644L32.0693 23.4644ZM32.0693 5.28263C32.0693 2.83322 30.0574 0.873537 27.6078 0.873537L27.6078 2.87354C28.9817 2.87354 30.0693 3.96646 30.0693 5.28263L32.0693 5.28263ZM6.99241 8.69172C6.99241 10.5135 8.48777 11.9644 10.3001 11.9644L10.3001 9.96444C9.56344 9.96444 8.99241 9.38029 8.99241 8.69172L6.99241 8.69172ZM10.3001 11.9644C12.1124 11.9644 13.6078 10.5135 13.6078 8.69172L11.6078 8.69172C11.6078 9.38029 11.0368 9.96444 10.3001 9.96444L10.3001 11.9644ZM13.6078 8.69172C13.6078 6.8699 12.1124 5.41899 10.3001 5.41899L10.3001 7.41899C11.0368 7.41899 11.6078 8.00315 11.6078 8.69172L13.6078 8.69172ZM10.3001 5.41899C8.48777 5.41899 6.99241 6.8699 6.99241 8.69172L8.99241 8.69172C8.99241 8.00315 9.56344 7.41899 10.3001 7.41899L10.3001 5.41899ZM13.3088 20.7536L19.8468 14.3267L18.4448 12.9004L11.9068 19.3273L13.3088 20.7536ZM19.8474 14.3262C20.082 14.0951 20.4004 13.9585 20.7382 13.9487L20.6799 11.9495C19.8416 11.974 19.0416 12.3128 18.4442 12.901L19.8474 14.3262ZM20.7382 13.9487C21.0761 13.9388 21.4026 14.0566 21.6513 14.2741L22.9677 12.7684C22.3365 12.2166 21.5181 11.9251 20.6799 11.9495L20.7382 13.9487ZM21.6507 14.2736L30.4106 21.9441L31.7281 20.4394L22.9683 12.7689L21.6507 14.2736ZM19.0787 26.1611L10.184 17.4011L8.78063 18.8261L17.6753 27.586L19.0787 26.1611ZM10.1847 17.4018C9.60056 16.8253 8.82153 16.4873 8.00149 16.4498L7.9102 18.4477C8.24062 18.4628 8.55052 18.599 8.77991 18.8254L10.1847 17.4018ZM8.00149 16.4498C7.18149 16.4123 6.37477 16.6779 5.73983 17.1979L7.00701 18.7452C7.25761 18.54 7.57974 18.4326 7.9102 18.4477L8.00149 16.4498ZM5.73872 17.1988L0.43463 21.5553L1.70404 23.1008L7.00813 18.7443L5.73872 17.1988Z" fill="#8C8C8C"/>
</svg>
