<svg width="33" height="33" viewBox="0 0 33 33" fill="none" xmlns="http://www.w3.org/2000/svg">
<path d="M11.9068 21.3273C11.5129 21.7145 11.5075 22.3476 11.8947 22.7415C12.2818 23.1353 12.915 23.1407 13.3088 22.7536L11.9068 21.3273ZM19.1458 15.6136L19.8468 16.3267L19.8474 16.3262L19.1458 15.6136ZM22.3095 15.5213L22.9683 14.7689L22.9677 14.7684L22.3095 15.5213ZM30.4106 23.9441C30.8261 24.3079 31.4578 24.266 31.8217 23.8505C32.1855 23.435 32.1436 22.8032 31.7281 22.4394L30.4106 23.9441ZM17.6753 29.586C18.0688 29.9735 18.702 29.9687 19.0895 29.5752C19.477 29.1817 19.4722 28.5486 19.0787 28.1611L17.6753 29.586ZM9.48232 20.1136L8.77991 20.8254L8.78063 20.8261L9.48232 20.1136ZM6.37342 19.9715L5.73983 19.1979L5.73872 19.1988L6.37342 19.9715ZM0.43463 23.5553C0.00784917 23.9059 -0.0539566 24.536 0.296582 24.9628C0.647118 25.3896 1.27726 25.4514 1.70404 25.1008L0.43463 23.5553ZM27.6078 2.87354L4.53088 2.87353L4.53088 4.87353L27.6078 4.87354L27.6078 2.87354ZM4.53088 2.87353C2.08128 2.87353 0.0693361 4.83321 0.0693359 7.28262L2.06934 7.28262C2.06934 5.96646 3.15696 4.87353 4.53088 4.87353L4.53088 2.87353ZM0.0693359 7.28262L0.0693343 25.4644L2.06933 25.4644L2.06934 7.28262L0.0693359 7.28262ZM0.0693343 25.4644C0.0693341 27.9139 2.08128 29.8735 4.53087 29.8735L4.53087 27.8735C3.15695 27.8735 2.06933 26.7806 2.06933 25.4644L0.0693343 25.4644ZM4.53087 29.8735L27.6078 29.8735L27.6078 27.8735L4.53087 27.8735L4.53087 29.8735ZM27.6078 29.8735C30.0574 29.8735 32.0693 27.9139 32.0693 25.4644L30.0693 25.4644C30.0693 26.7806 28.9817 27.8735 27.6078 27.8735L27.6078 29.8735ZM32.0693 25.4644L32.0693 7.28263L30.0693 7.28263L30.0693 25.4644L32.0693 25.4644ZM32.0693 7.28263C32.0693 4.83322 30.0574 2.87354 27.6078 2.87354L27.6078 4.87354C28.9817 4.87354 30.0693 5.96646 30.0693 7.28263L32.0693 7.28263ZM6.99241 10.6917C6.99241 12.5135 8.48777 13.9644 10.3001 13.9644L10.3001 11.9644C9.56344 11.9644 8.99241 11.3803 8.99241 10.6917L6.99241 10.6917ZM10.3001 13.9644C12.1124 13.9644 13.6078 12.5135 13.6078 10.6917L11.6078 10.6917C11.6078 11.3803 11.0368 11.9644 10.3001 11.9644L10.3001 13.9644ZM13.6078 10.6917C13.6078 8.8699 12.1124 7.41899 10.3001 7.41899L10.3001 9.41899C11.0368 9.41899 11.6078 10.0031 11.6078 10.6917L13.6078 10.6917ZM10.3001 7.41899C8.48777 7.41899 6.99241 8.8699 6.99241 10.6917L8.99241 10.6917C8.99241 10.0031 9.56344 9.41899 10.3001 9.41899L10.3001 7.41899ZM13.3088 22.7536L19.8468 16.3267L18.4448 14.9004L11.9068 21.3273L13.3088 22.7536ZM19.8474 16.3262C20.082 16.0951 20.4004 15.9585 20.7382 15.9487L20.6799 13.9495C19.8416 13.974 19.0416 14.3128 18.4442 14.901L19.8474 16.3262ZM20.7382 15.9487C21.0761 15.9388 21.4026 16.0566 21.6513 16.2741L22.9677 14.7684C22.3365 14.2166 21.5181 13.9251 20.6799 13.9495L20.7382 15.9487ZM21.6507 16.2736L30.4106 23.9441L31.7281 22.4394L22.9683 14.7689L21.6507 16.2736ZM19.0787 28.1611L10.184 19.4011L8.78063 20.8261L17.6753 29.586L19.0787 28.1611ZM10.1847 19.4018C9.60056 18.8253 8.82153 18.4873 8.00149 18.4498L7.9102 20.4477C8.24062 20.4628 8.55052 20.599 8.77991 20.8254L10.1847 19.4018ZM8.00149 18.4498C7.18149 18.4123 6.37477 18.6779 5.73983 19.1979L7.00701 20.7452C7.25761 20.54 7.57974 20.4326 7.9102 20.4477L8.00149 18.4498ZM5.73872 19.1988L0.43463 23.5553L1.70404 25.1008L7.00813 20.7443L5.73872 19.1988Z" fill="#E76933"/>
</svg>
