<svg width="34" height="33" viewBox="0 0 34 33" fill="none" xmlns="http://www.w3.org/2000/svg">
<path d="M31.4001 15.8496L1.84162 3.92388C1.7595 3.88612 1.669 3.86914 1.57842 3.8745C1.48785 3.87986 1.4001 3.90739 1.32323 3.95456C1.24636 4.00173 1.18283 4.06703 1.13847 4.14447C1.09411 4.2219 1.07034 4.309 1.06934 4.39776L1.06933 12.0686C1.06934 12.1948 1.11434 12.317 1.19658 12.4141C1.27883 12.5112 1.39315 12.5773 1.51983 12.6008L18.6554 15.7826C19.8567 16.0053 19.8567 17.6883 18.6554 17.911L1.51914 21.0928C1.3927 21.1164 1.27863 21.1824 1.19654 21.2794C1.11444 21.3764 1.06946 21.4983 1.06933 21.6242L1.06933 29.2917C1.06933 29.6803 1.47623 29.9863 1.84162 29.8333L31.4001 17.8392C31.5988 17.7555 31.7681 17.6167 31.887 17.4399C32.006 17.2631 32.0693 17.0561 32.0693 16.8444C32.0693 16.6328 32.006 16.4258 31.887 16.249C31.7681 16.0722 31.5988 15.9333 31.4001 15.8496Z" stroke="#8C8C8C" stroke-width="2" stroke-linecap="round" stroke-linejoin="round"/>
</svg>
