<svg width="55" height="47" viewBox="0 0 55 47" fill="none" xmlns="http://www.w3.org/2000/svg">
<path d="M52.1832 22.1891L2.30323 2.06445C2.16464 2.00073 2.01193 1.97208 1.85908 1.98112C1.70624 1.99017 1.55816 2.03663 1.42845 2.11622C1.29873 2.19582 1.19152 2.30601 1.11666 2.43669C1.0418 2.56736 1.00169 2.71434 0.999999 2.86413L0.999998 15.8087C0.999999 16.0216 1.07594 16.2278 1.21473 16.3917C1.35352 16.5556 1.54644 16.667 1.76022 16.7067L30.6764 22.076C32.7037 22.4518 32.7037 25.2919 30.6764 25.6677L1.75904 31.037C1.54568 31.0769 1.35318 31.1882 1.21465 31.3519C1.07612 31.5155 1.00022 31.7213 0.999997 31.9338L0.999996 44.8727C0.999996 45.5285 1.68664 46.0448 2.30322 45.7867L52.1832 25.5466C52.5185 25.4053 52.8041 25.1711 53.0048 24.8727C53.2055 24.5744 53.3125 24.225 53.3125 23.8679C53.3125 23.5107 53.2055 23.1614 53.0048 22.863C52.8041 22.5647 52.5185 22.3304 52.1832 22.1891Z" stroke="#E76933" stroke-width="2" stroke-linecap="round" stroke-linejoin="round"/>
</svg>
