<svg width="32" height="29" viewBox="0 0 32 29" fill="none" xmlns="http://www.w3.org/2000/svg">
<path d="M29.611 13.3794L29.6142 13.3808C29.8936 13.5059 30.1349 13.7151 30.3059 13.9857C30.477 14.2565 30.5693 14.5756 30.5693 14.9034C30.5693 15.2312 30.477 15.5503 30.3059 15.8211C30.1349 16.0916 29.8936 16.3008 29.6142 16.426L29.6056 16.4298L29.5972 16.4339L29.5968 16.4342L2.02467 28.2843L2.02466 28.2842L2.02089 28.2859C1.88931 28.3437 1.74879 28.3733 1.60735 28.3735C1.4066 28.3732 1.20861 28.3114 1.03797 28.1932L1.03661 28.1923C0.895531 28.0953 0.777625 27.9618 0.69527 27.8022L0.250954 28.0315L0.695269 27.8022C0.61287 27.6426 0.569216 27.4628 0.569336 27.2793V27.279V19.6524C0.569715 19.3875 0.658848 19.1336 0.817499 18.9342C0.975682 18.7355 1.19196 18.6042 1.4268 18.5576C1.42709 18.5576 1.42738 18.5575 1.42767 18.5575L16.4695 15.6589L16.4718 15.6584C16.6503 15.6232 16.8069 15.525 16.9172 15.3862C17.0271 15.2479 17.0852 15.077 17.0852 14.9034C17.0852 14.7297 17.0271 14.5589 16.9172 14.4206C16.8069 14.2818 16.6503 14.1836 16.4718 14.1483L16.4695 14.1479L1.42724 11.2493C1.4269 11.2493 1.42655 11.2492 1.42621 11.2491C1.19136 11.2024 0.975127 11.071 0.817046 10.8721C0.658436 10.6725 0.569459 10.4184 0.569336 10.1533C0.569336 10.1533 0.569336 10.1532 0.569336 10.1532L0.569336 2.5281C0.56959 2.33237 0.616562 2.14071 0.704909 1.97054C0.793248 1.80038 0.919607 1.65806 1.07082 1.55481L1.07084 1.55483L1.0751 1.55185C1.21513 1.45409 1.37455 1.3951 1.53898 1.37843C1.70337 1.36177 1.86967 1.38771 2.02349 1.4548L2.02349 1.45481L2.02501 1.45546L29.6053 13.3767L29.611 13.3794Z" fill="#E76933" stroke="#E76933"/>
</svg>
