<svg width="24" height="24" viewBox="0 0 24 24" fill="none" xmlns="http://www.w3.org/2000/svg">
<path d="M11.5846 19.9999C11.5068 19.9713 11.4248 19.9814 11.3448 19.9747C9.51603 19.8185 7.92406 19.1255 6.57489 17.897C5.46851 16.8895 4.71165 15.6635 4.29027 14.235C4.28687 14.2233 4.28389 14.2115 4.28134 14.1997C4.28091 14.198 4.28389 14.1955 4.28899 14.1875C4.39189 14.2292 4.49607 14.2713 4.59982 14.3142C5.49104 14.6817 6.38227 15.0501 7.27393 15.4168C7.32367 15.437 7.35046 15.4635 7.36364 15.5183C7.58347 16.4567 8.3667 17.1472 9.33021 17.2545C10.4532 17.38 11.5332 16.615 11.7781 15.5221C11.8202 15.3343 11.8436 15.1444 11.8368 14.952C11.8355 14.9112 11.8474 14.8863 11.8819 14.8615C12.7608 14.2372 13.6384 13.6115 14.5164 12.9855C14.5453 12.9649 14.5734 12.9527 14.6112 12.9531C16.1241 12.9653 17.37 11.8547 17.6102 10.4388C17.8798 8.84909 16.8257 7.30567 15.2367 6.98149C13.6898 6.66616 12.1493 7.60164 11.7211 9.11643C11.6471 9.37787 11.6089 9.64479 11.6089 9.91634C11.6089 9.96055 11.5953 9.99591 11.5706 10.0317C10.9579 10.9167 10.346 11.802 9.73458 12.6883C9.70822 12.7266 9.68228 12.743 9.63253 12.7413C9.16481 12.7249 8.73535 12.8482 8.34331 13.0992C8.3093 13.1211 8.28208 13.1278 8.24211 13.111C6.84617 12.5338 5.4498 11.9574 4.05343 11.3819C4.01474 11.3659 3.99603 11.3503 4.00071 11.3027C4.07384 10.5133 4.24945 9.74836 4.55049 9.01328C5.20446 7.41766 6.26279 6.15127 7.72889 5.2221C8.51084 4.72742 9.35742 4.38387 10.264 4.186C11.0974 4.00412 11.9388 3.95487 12.7884 4.04159C14.3174 4.19737 15.6913 4.74089 16.8967 5.68184C18.3786 6.83835 19.3382 8.33209 19.7817 10.1475C19.9828 10.9705 20.039 11.8063 19.9735 12.65C19.7256 15.8281 17.5511 18.5921 14.5117 19.5941C13.8374 19.8164 13.1456 19.949 12.4359 19.9869C12.4202 19.9877 12.4002 19.9797 12.3896 20.0003C12.1212 19.9999 11.8529 19.9999 11.5846 19.9999Z" fill="white"/>
<path d="M14.6307 7.92662C15.7418 7.92914 16.6419 8.8301 16.6419 9.93946C16.6419 11.0505 15.7337 11.9531 14.6201 11.9481C13.5141 11.943 12.6136 11.0396 12.6144 9.93609C12.6157 8.83094 13.5248 7.92451 14.6307 7.92662ZM16.1453 9.93861C16.147 9.10418 15.4709 8.42593 14.6367 8.42467C13.8012 8.42298 13.1213 9.09786 13.1196 9.93062C13.1179 10.7634 13.7948 11.4433 14.6282 11.4454C15.4624 11.4479 16.1436 10.7709 16.1453 9.93861Z" fill="white"/>
<path d="M8.05027 15.754C8.08429 15.7363 8.10938 15.7637 8.13574 15.7746C8.42871 15.8938 8.7204 16.0167 9.01336 16.1359C9.79106 16.452 10.6347 15.9683 10.7469 15.1431C10.8213 14.5975 10.5135 14.0573 9.99686 13.8363C9.67881 13.7003 9.35778 13.5711 9.03802 13.4389C9.02102 13.4317 9.00401 13.4237 8.97424 13.4107C9.12221 13.3505 9.26381 13.3189 9.4088 13.3075C10.3298 13.2351 11.1139 13.8494 11.2538 14.7507C11.4 15.6938 10.7104 16.5821 9.75152 16.6853C9.05928 16.7598 8.39299 16.4091 8.07026 15.8007C8.06261 15.786 8.05835 15.7692 8.0524 15.7536L8.05027 15.754Z" fill="white"/>
<path d="M8.0524 15.7536C8.05027 15.7502 8.04772 15.7464 8.0456 15.7435C8.04772 15.7435 8.05027 15.7435 8.0524 15.7435C8.05198 15.7473 8.05112 15.7506 8.0507 15.7544L8.0524 15.7536Z" fill="white"/>
</svg>
