<svg width="46" height="46" viewBox="0 0 46 46" fill="none" xmlns="http://www.w3.org/2000/svg">
<path d="M36.3422 45.8921H9.46585C4.28572 45.8921 0.046875 41.6533 0.046875 36.4732V9.59682C0.046875 4.4167 4.28572 0.177856 9.46585 0.177856H36.3422C41.5223 0.177856 45.7612 4.4167 45.7612 9.59682V36.4732C45.7612 41.6533 41.5223 45.8921 36.3422 45.8921Z" fill="#FDFEFE"/>
<path d="M36.9394 15.3357C36.739 19.1251 36.6357 22.9186 35.9394 26.6615C35.5204 28.9186 34.8827 31.0926 33.3645 32.8983C32.2754 34.1938 30.8645 35.0582 29.3989 35.8456C27.4759 36.878 25.5649 37.9286 23.7836 39.1999C23.233 39.5926 22.6216 39.6351 22.0832 39.2485C20.0326 37.7748 17.8099 36.5926 15.5913 35.4084C12.3545 33.6817 10.6966 30.8943 9.99621 27.4024C9.43143 24.5805 9.19662 21.7243 9.06099 18.8599C8.95775 16.6939 8.91322 14.5259 8.85856 12.36C8.82617 11.1069 9.42941 10.4855 10.6804 10.5098C13.3909 10.5624 16.0144 10.1677 18.5063 9.05027C19.6763 8.52598 20.7552 7.85595 21.7512 7.05028C22.571 6.38834 23.2168 6.39037 24.0285 7.04421C26.5082 9.04622 29.3625 10.0928 32.5123 10.4126C33.4191 10.5037 34.326 10.4976 35.2349 10.5057C36.3726 10.5158 36.99 11.2001 36.9475 12.3256C36.911 13.3276 36.9394 14.3316 36.9394 15.3357ZM33.8463 16.115C33.8463 15.3822 33.8361 14.6494 33.8503 13.9166C33.8544 13.6596 33.7936 13.5482 33.5102 13.5482C33.0973 13.5482 32.6843 13.5017 32.2714 13.4632C28.992 13.1535 25.9597 12.1413 23.237 10.2648C22.9597 10.0725 22.7856 10.0988 22.5285 10.275C19.4779 12.3741 16.065 13.3721 12.395 13.5401C12.0023 13.5583 11.9213 13.6798 11.9375 14.0361C12.0083 15.611 12.0367 17.1899 12.1197 18.7648C12.2614 21.3903 12.482 24.0036 12.9537 26.5967C13.4861 29.5339 14.9031 31.7505 17.6662 33.0663C19.0872 33.7424 20.4982 34.4752 21.7694 35.4023C22.5872 35.9975 23.1702 36.0015 23.9981 35.4124C25.6338 34.2505 27.488 33.4408 29.2127 32.4145C30.7471 31.5015 31.7714 30.202 32.3199 28.5076C32.8989 26.7242 33.1641 24.8842 33.3564 23.0299C33.6013 20.7324 33.7228 18.4267 33.8463 16.115Z" fill="#3073BD"/>
</svg>
