<svg width="33" height="33" viewBox="0 0 33 33" fill="none" xmlns="http://www.w3.org/2000/svg">
<path d="M5.94369 8.76305H5.94434H8.51529C8.50313 8.83486 8.49746 8.90739 8.4982 8.97958C8.49901 9.05977 8.50757 9.13895 8.52348 9.21618L5.94434 9.21618L5.94379 9.21618C4.784 9.21744 3.67208 9.67873 2.85198 10.4988C2.81875 10.5321 2.78611 10.5658 2.75407 10.5999C2.84905 10.2724 2.99197 9.93787 3.194 9.6239C4.00051 9.06248 4.96023 8.76178 5.94369 8.76305ZM5.94488 10.2162L9.8151 10.2162C9.81188 10.2251 9.80832 10.2345 9.8044 10.2445C9.75251 10.3763 9.66845 10.5214 9.58906 10.6424C9.55077 10.7008 9.51635 10.7494 9.4919 10.7828C9.47973 10.7995 9.47018 10.8122 9.46402 10.8203L9.46369 10.8207L5.03678 15.8418L2.59961 16.9124V13.144C2.69794 12.4144 3.03275 11.7323 3.55909 11.2059C4.19182 10.5732 5.04967 10.2173 5.94447 10.2162C5.94461 10.2162 5.94474 10.2162 5.94488 10.2162ZM9.84961 11.139C10.2425 11.4483 10.2426 11.4482 10.2426 11.4481L10.2428 11.4479L10.2433 11.4473L10.2445 11.4458L10.2481 11.4411L10.2598 11.4258C10.2695 11.4131 10.2829 11.3952 10.2992 11.373C10.3316 11.3286 10.376 11.266 10.4252 11.191C10.5208 11.0452 10.6468 10.8346 10.7349 10.6107C10.7745 10.5102 10.8212 10.3715 10.8395 10.2162L25.3188 10.2162C25.3189 10.2162 25.3191 10.2162 25.3192 10.2162C26.214 10.2173 27.0719 10.5732 27.7046 11.2059C28.3374 11.8388 28.6934 12.6968 28.6943 13.5917V25.2156C28.6934 26.1106 28.3374 26.9686 27.7046 27.6014C27.0718 28.2342 26.2137 28.5902 25.3188 28.5912H5.94488C5.04993 28.5902 4.19192 28.2342 3.55909 27.6014C2.92633 26.9687 2.57038 26.1107 2.56934 25.2159V18.0179L5.53995 16.713L5.64096 16.6687L5.71392 16.5859L10.2247 11.4697L10.2339 11.4592L10.2425 11.4483L9.84961 11.139ZM10.5421 7.42597C10.5072 7.38465 10.47 7.34423 10.4319 7.30532L21.3874 5.43492L21.3874 5.43499L21.3955 5.43348C21.8594 5.34644 22.3362 5.35426 22.797 5.45646C23.2579 5.55866 23.6933 5.75313 24.0769 6.02814C24.4606 6.30315 24.7846 6.65301 25.0294 7.05662C25.1647 7.27978 25.2743 7.51681 25.3565 7.76315C25.3441 7.76308 25.3317 7.76305 25.3193 7.76305C25.3193 7.76305 25.3192 7.76305 25.3191 7.76305H10.752C10.7463 7.74829 10.7405 7.73453 10.7348 7.72187C10.6825 7.60499 10.6077 7.50378 10.5421 7.42597ZM21.0892 21.4304C21.49 21.6982 21.9613 21.8412 22.4434 21.8412C23.0898 21.8412 23.7098 21.5844 24.1669 21.1272C24.6241 20.6701 24.8809 20.0501 24.8809 19.4037C24.8809 18.9216 24.7379 18.4503 24.4701 18.0495C24.2022 17.6486 23.8215 17.3362 23.3762 17.1517C22.9308 16.9672 22.4407 16.919 21.9678 17.013C21.495 17.1071 21.0607 17.3392 20.7198 17.6801C20.3789 18.021 20.1467 18.4553 20.0527 18.9281C19.9586 19.401 20.0069 19.8911 20.1914 20.3365C20.3759 20.7819 20.6883 21.1625 21.0892 21.4304Z" fill="#E76933" stroke="#E76933"/>
</svg>
