<svg width="33" height="33" viewBox="0 0 33 33" fill="none" xmlns="http://www.w3.org/2000/svg">
<path d="M27.2732 8.74218V6.54099C27.273 6.00112 27.1557 5.46794 26.9297 4.9795C26.7037 4.49105 26.3745 4.05938 25.9656 3.71528C25.5567 3.37118 25.0783 3.12314 24.5643 2.98885C24.0504 2.85455 23.5136 2.83733 22.9924 2.93839L4.00011 6.2365C3.17534 6.39641 2.43127 6.84415 1.89625 7.5025C1.36122 8.16084 1.06877 8.98852 1.06934 9.84277V13.438M4.53088 8.74218H27.6078C29.5196 8.74218 31.0693 10.319 31.0693 12.2641V26.3516C31.0693 28.2967 29.5196 29.8735 27.6078 29.8735H4.53088C2.61912 29.8735 1.06934 28.2967 1.06934 26.3516V12.2641C1.06934 10.319 2.61912 8.74218 4.53088 8.74218Z" stroke="#8C8C8C" stroke-width="2" stroke-linejoin="round"/>
<path d="M24.1456 20.6558C23.8908 20.6558 23.6403 20.579 23.4257 20.4331C23.2109 20.287 23.0408 20.0776 22.9397 19.8293C22.8386 19.5809 22.8119 19.3065 22.8637 19.0417C22.9154 18.7769 23.0428 18.536 23.227 18.3486C23.411 18.1613 23.6434 18.0358 23.8937 17.9852C24.144 17.9345 24.4035 17.9604 24.6403 18.0602C24.8774 18.16 25.0827 18.3304 25.2285 18.5524C25.3744 18.7745 25.4533 19.0375 25.4533 19.3079C25.4533 19.6709 25.3114 20.0156 25.0642 20.2671L25.7774 20.9681L25.0642 20.2671C24.8176 20.5181 24.4868 20.6558 24.1456 20.6558Z" fill="black" stroke="#8C8C8C" stroke-width="2"/>
</svg>
