<svg width="224" height="114" viewBox="0 0 224 114" fill="none" xmlns="http://www.w3.org/2000/svg">
<path fill-rule="evenodd" clip-rule="evenodd" d="M188.09 112.496C188.193 110.954 188.376 111.657 187.657 110.89C187.628 111.504 187.599 112.119 187.57 112.734C183.598 112.425 180.151 112.465 178.347 109.582C178.059 111.326 178.378 110.378 177.64 112.011C173.568 112.683 170.345 110.701 167.074 110.376C162.334 109.906 153.86 112.327 148.89 109.368C148.89 109.368 136.25 109.432 134.763 106.805C135.143 106.53 135.524 106.256 135.904 105.982C135.832 105.714 135.76 105.447 135.687 105.179C134.428 106.674 132.34 105.564 130.994 105.821C130.703 107.396 131.204 107.056 129.86 107.393C129.961 107.046 130.062 106.699 130.163 106.352C130.773 105.838 130.312 106.385 130.885 105.42C128.629 105.453 125.426 103.874 124.407 105.224C124.029 105.748 123.651 106.272 123.274 106.795C122.445 106.42 121.419 107.034 120.861 105.793C121.865 105.766 121.7 105.786 122.421 105.079C122.382 104.696 122.344 104.312 122.306 103.929C121.066 104.673 120.125 104.207 119.388 104.662C119.248 104.625 119.109 104.589 118.969 104.553C118.935 104.669 118.901 104.784 118.868 104.9C119.323 105.142 119.778 105.386 120.233 105.629C120.096 105.842 119.958 106.055 119.822 106.268C117.807 105.873 116.341 105.616 115.517 104.026C113.654 105.824 108.805 104.091 105.485 103.651C105.421 104.131 105.356 104.612 105.291 105.093C101.007 100.45 97.1371 106.022 91.793 102.693C91.6245 103.272 91.4564 103.85 91.2878 104.428C90.7942 103.802 90.3003 103.175 89.8067 102.549C88.9119 103.654 83.0099 104.916 82.2889 102.828C79.2618 104.582 63.5247 102.729 60.0164 100.381C59.9518 100.861 59.8863 101.342 59.8218 101.823C58.1672 101.119 57.7363 101.621 56.0591 101.589C56.0519 100.841 56.0445 100.092 56.0373 99.3431C55.5689 100.641 56.1466 99.8361 55.4232 100.676C55.3515 100.596 42.4872 99.9699 39.3257 99.466C39.4629 99.2525 39.6002 99.0396 39.7373 98.8262C40.469 98.8928 41.2012 98.9593 41.9328 99.0255C40.8969 97.7928 35.8969 98.1941 34.2991 98.155C34.3663 97.9238 34.4341 97.6924 34.5013 97.4611C34.8917 94.9346 36.0679 94.6673 37.281 93.3322C37.2425 92.949 37.2038 92.5654 37.1652 92.1822C34.4063 91.3386 31.6473 90.4945 28.8885 89.6509C29.0256 89.4375 29.163 89.2245 29.3001 89.0111C29.4397 89.0479 29.5792 89.0841 29.7186 89.1204C29.7165 88.8712 29.7142 88.6215 29.7114 88.3719C30.1327 88.7308 30.5545 89.0896 30.9757 89.4481C31.1415 88.6202 31.3074 87.7923 31.4732 86.9644C31.9933 87.9912 32.0957 87.9834 31.7051 89.265C32.3359 88.6968 31.9599 89.1916 32.5281 87.9865C33.0977 88.8527 32.3835 89.0075 33.2647 88.5519C33.5415 88.3753 33.8186 88.198 34.0949 88.0215C34.398 86.9807 34.7012 85.9398 35.0042 84.8985C34.3063 84.7168 33.6082 84.5345 32.9103 84.3527C32.708 85.0466 32.5057 85.7405 32.3035 86.4345C32.2341 86.4165 32.164 86.3982 32.094 86.3799C31.8664 84.3517 29.671 84.8277 28.7212 83.2603C29.9135 81.7974 29.6586 82.8639 29.6382 80.8858C29.5682 80.8675 29.4982 80.8496 29.4287 80.8312C29.1491 80.7583 28.8697 80.6858 28.5907 80.6128C28.5621 81.2277 28.533 81.8423 28.5044 82.4572C27.6672 81.7477 28.1664 81.0818 27.7532 80.3942C27.0246 79.1838 22.2083 80.5407 21.5778 79.1577C21.2656 77.8172 21.9373 77.083 21.1296 76.0539C21.0624 76.2852 20.9951 76.5165 20.9274 76.7479C20.306 77.2394 20.0324 77.8988 19.4837 78.6114C19.2692 78.058 19.0552 77.504 18.8407 76.9506C19.192 73.5738 11.4384 67.0455 9.83993 64.5234C11.5807 54.4858 7.53269 58.9298 5.15089 55.0873C4.91961 54.2607 4.98626 54.3861 5.33852 52.8958C5.81984 52.275 6.30103 51.6536 6.78235 51.0327C6.67142 50.3815 6.56051 49.7303 6.44959 49.0791C6.5869 48.8661 6.72407 48.6527 6.86137 48.4398C8.57366 48.0783 10.7381 48.5769 12.9578 48.9979C10.6934 45.7689 6.58814 42.0611 5.47302 40.3011C7.21345 30.2641 3.16589 34.708 0.78458 30.8654C0.552198 30.0386 0.619961 30.1642 0.971739 28.674C1.45306 28.0532 1.93425 27.4318 2.41544 26.8105C2.30465 26.1597 2.19422 25.5084 2.08331 24.8572C2.21998 24.6439 2.35729 24.4309 2.49458 24.218C6.48033 23.3766 12.9161 27.1975 16.8007 23.8414C16.7621 23.4582 16.7239 23.0744 16.6853 22.6912C18.1588 23.0242 17.9967 22.5232 20.0364 23.5652C20.0673 23.1999 20.0986 22.8346 20.1299 22.4693C20.0213 22.0678 19.9132 21.6661 19.8045 21.2646C19.7345 21.2463 19.6651 21.2283 19.5951 21.21L14.0414 19.3887C13.2987 20.1723 13.846 19.2979 13.4279 20.7218C12.744 19.6761 12.8397 19.1828 11.9469 18.8425C11.8124 19.3051 11.6773 19.7677 11.5428 20.2302C11.5401 19.9807 11.5379 19.7314 11.5351 19.4819C10.7672 18.4411 10.8169 17.3667 10.8702 15.5749C11.1856 15.7814 11.5011 15.9884 11.8164 16.195C11.9092 14.4848 13.3943 10.9608 14.1476 8.96287C15.5485 8.67765 16.3331 9.53208 17.087 10.4761C17.5373 10.22 17.9876 9.96387 18.438 9.70774C18.5003 8.97766 18.5624 8.2471 18.6248 7.51702C19.1063 8.05656 18.8422 7.89657 19.3619 8.08234C20.2119 4.77081 21.3131 5.38898 23.2895 3.87971C22.9469 2.54887 22.7598 3.35925 23.2672 1.63377C24.4604 1.67512 25.8723 2.45933 26.8205 1.8138C27.2384 0.759247 26.6514 1.5243 27.3332 0.827589C32.951 -1.21854 39.7553 2.5041 44.2615 1.50787C44.0093 2.91826 44.0474 3.14911 44.182 4.10096C44.5937 3.46164 45.0053 2.82185 45.4166 2.18266C46.7775 3.21028 48.0584 5.01236 50.032 4.13278C49.6802 3.7923 49.3289 3.4517 48.9772 3.11122C50.0149 2.95988 49.8755 2.84477 50.6381 2.05066C54.0039 3.56763 53.3416 4.1999 56.2069 5.36936C56.375 4.7912 56.5437 4.2129 56.7123 3.63461C57.8338 4.42504 58.9558 5.21533 60.0778 6.00563C60.6894 3.8412 60.3825 4.05992 61.3053 3.33879C63.4043 4.38392 65.5039 5.42941 67.6029 6.47455C67.6651 5.74399 67.7279 5.01377 67.7901 4.28321C68.841 4.8314 68.8116 4.51892 68.5418 6.34607C69.442 5.83393 70.3422 5.3218 71.2425 4.81014C71.5579 5.01667 71.8732 5.22319 72.1887 5.43019C72.0878 5.77709 71.9864 6.12411 71.8855 6.47101C71.2247 6.49716 70.94 5.92856 71.0552 7.00099C71.3343 7.07404 71.6138 7.14697 71.8928 7.21954C72.3045 6.58023 72.7158 5.94104 73.1276 5.30172C78.9889 10.2948 88.9168 4.59932 92.6848 7.78756C93.4675 6.46269 93.2068 6.71488 94.3454 6.72761C93.965 7.00158 93.5846 7.27604 93.2042 7.55001C93.2093 8.0493 93.2142 8.54812 93.2192 9.04694C103.345 10.1767 113.715 9.02013 123.847 11.4333C123.91 10.7031 123.972 9.97256 124.035 9.24235C126.396 9.15516 126.141 9.94248 127.812 10.974C128.363 10.3711 128.914 9.76811 129.465 9.16508C130.794 9.76039 132.124 10.3561 133.452 10.9514C132.869 12.1934 132.968 11.1265 133.048 12.3392C134.519 12.1196 135.791 12.8552 137.858 12.8469C138.408 11.8291 138.429 11.4608 139.403 10.6364C140.072 11.4331 140.742 12.2297 141.411 13.0264C142.105 12.0397 142.699 11.1901 143.584 10.9798C147.575 10.033 150.275 16.2406 155.205 13.6365C155.487 13.9587 155.768 14.2813 156.05 14.6036C156.988 13.9865 157.539 12.9791 158.223 12.5568C158.021 13.2507 157.819 13.945 157.617 14.6389C160.731 13.3945 166.41 17.9303 169.201 13.5527C169.379 13.9726 169.557 14.3926 169.736 14.8119C169.175 15.6977 169.573 14.8791 169.223 15.7986C170.128 15.7854 171.033 15.7726 171.938 15.7597C172.091 14.4007 171.695 15.2512 172.443 14.0251C176.98 14.823 178.51 14.5747 182.366 13.9989C183.965 13.7599 185.833 17.27 186.585 18.0858C189.137 20.8545 192.877 18.2556 195.396 21.8764C194.323 24.5874 193.899 24.6289 193.982 26.7345C194.999 27.6222 196.018 28.5103 197.037 29.3978C196.868 29.9761 196.7 30.5543 196.531 31.1325C195.699 31.6409 196.279 31.1897 195.809 32.0646C196.732 32.0378 196.26 31.432 196.546 32.63C196.512 32.7457 196.479 32.8613 196.445 32.9769C195.959 33.099 195.473 33.221 194.986 33.3432C194.953 33.4587 194.919 33.5744 194.885 33.69C195.607 34.3433 195.781 34.5259 195.846 35.8076C197.834 33.8869 199.442 34.3274 201.573 33.941C202.534 36.0575 203.494 38.1756 204.455 40.2927C203.785 41.1886 204.173 40.6058 203.849 42.3742C203.466 42.399 203.084 42.4238 202.701 42.4485C202.667 42.5642 202.634 42.6798 202.6 42.7955C202.988 43.2695 203.375 43.744 203.763 44.2187C205.553 43.658 206.347 43.7168 207.626 44.106C207.296 45.8946 207.236 45.7474 208.06 45.7126C209.638 46.8537 211.244 46.4326 211.224 48.7775C211.847 48.4425 212.471 48.1071 213.094 47.7716C214.046 51.969 216.959 49.5354 218.446 50.2873C218.579 51.4294 218.932 51.7567 219.299 52.0031C218.427 54.652 218.123 54.5757 216.728 56.1861C215.202 55.9982 213.788 57.1883 212.988 58.1974C213.06 58.4655 213.132 58.733 213.204 59.0007C214.154 58.6922 214.745 58.339 215.09 59.4922C214.988 59.8392 214.887 60.1866 214.787 60.5335C212.954 63.8337 210.462 66.1228 207.897 68.1561C207.975 68.2507 208.052 68.3459 208.129 68.4405C209.92 67.88 210.714 67.9391 211.994 68.3281C211.663 70.1164 211.603 69.9698 212.427 69.9344C214.004 71.0755 215.61 70.6545 215.59 72.9993C216.214 72.6643 216.837 72.3289 217.461 71.9939C218.412 76.1914 221.326 73.7572 222.813 74.5094C222.946 75.6512 223.299 75.979 223.665 76.2249C222.793 78.8737 222.49 78.7975 221.095 80.4079C219.568 80.22 218.155 81.4101 217.355 82.4197C217.427 82.6872 217.499 82.9549 217.571 83.2228C218.52 82.914 219.111 82.5609 219.456 83.7145C219.355 84.0614 219.254 84.4083 219.153 84.7554C215.788 90.8166 210.203 93.4724 206.012 97.382C206.246 98.1763 206.191 97.5689 206.027 98.8796C205.602 98.2711 205.179 97.6629 204.755 97.0543C204.376 99.5942 204.487 99.5842 203.232 101.511C202.421 100.932 202.312 100.932 201.456 101.421C200.336 104.349 201.315 103.852 202.222 104.981C201.841 106.694 198.78 112.572 197.5 113.457C193.648 115.234 190.336 111.61 188.09 112.496ZM60.6913 4.67203C60.8998 5.55257 60.7908 5.40046 61.4353 5.98649C61.1871 5.54822 60.9395 5.1103 60.6913 4.67203ZM135.968 101.892C136.038 101.91 136.108 101.928 136.178 101.946C136.248 101.965 136.318 101.983 136.387 102.001C136.486 101.405 136.585 100.808 136.683 100.212C136.445 100.771 136.207 101.332 135.968 101.892ZM132.726 101.42C133.793 101.056 134.276 100.515 133.882 102.094C134.717 101.685 134.787 102.245 135.542 101.034C135.716 100.955 135.889 100.876 136.062 100.796C134.882 100.535 135.187 100.894 134.488 100.012C133.529 100.785 133.321 100.756 132.726 101.42ZM112.338 99.4635C112.093 99.2753 111.847 99.0867 111.602 98.898C111.464 99.1115 111.327 99.3244 111.19 99.5378C111.156 99.6535 111.123 99.7691 111.089 99.8847C111.505 99.7443 111.922 99.6039 112.338 99.4635ZM108.894 99.6854C109.07 99.8557 109.245 100.026 109.421 100.196C109.906 99.6051 109.503 99.9941 110.042 99.6116C110.075 99.4961 110.109 99.3803 110.143 99.2647C109.933 99.2101 109.724 99.1555 109.514 99.1009C109.307 99.2955 109.1 99.4904 108.894 99.6854ZM71.5137 101.139C71.6895 101.309 71.8654 101.479 72.0413 101.649C72.1417 101.303 72.243 100.956 72.3444 100.609C72.2049 100.572 72.0649 100.536 71.9254 100.499C71.7881 100.712 71.6509 100.926 71.5137 101.139ZM35.0138 96.4744C35.3966 96.4502 35.7796 96.4253 36.1622 96.4006C36.3332 96.072 36.504 95.7429 36.6744 95.4145C36.6022 95.1469 36.5304 94.8787 36.4577 94.6113C35.9764 95.2322 35.4952 95.8536 35.0138 96.4744ZM40.2054 93.3486C40.4803 92.9221 40.7543 92.4958 41.0288 92.0694C40.8529 91.8992 40.677 91.729 40.5012 91.5587C40.4031 92.1552 40.3045 92.7518 40.2054 93.3486ZM22.2063 79.3216C23.0429 78.8769 22.6174 79.0523 22.9284 78.39C22.6875 78.7002 22.4471 79.0108 22.2063 79.3216ZM202.473 98.6996C202.645 99.5066 202.405 98.9455 202.899 99.5573C202.757 99.2714 202.615 98.9854 202.473 98.6996ZM166.749 109.172C166.47 109.099 166.19 109.026 165.911 108.953C165.984 109.221 166.056 109.489 166.128 109.756C166.335 109.561 166.542 109.366 166.749 109.172ZM198.676 105.55C198.604 105.282 198.532 105.014 198.459 104.746C198.227 106.043 198.238 105.819 198.373 106.591C198.474 106.244 198.575 105.897 198.676 105.55ZM12.6044 22.0005C12.7781 21.9215 12.9512 21.8421 13.1243 21.7628C13.2256 21.4158 13.327 21.0687 13.4279 20.7218C13.5622 21.854 13.4847 21.6477 12.9298 23.2056C12.8217 22.804 12.713 22.402 12.6044 22.0005ZM141.295 11.8764C141.363 11.6451 141.43 11.4139 141.498 11.1825C141.637 11.2188 141.777 11.2551 141.916 11.2918C141.43 11.8825 141.834 11.494 141.295 11.8764ZM133.871 11.0606C133.799 10.7926 133.727 10.525 133.654 10.2575C133.916 10.8457 133.769 10.3251 133.871 11.0606ZM96.1295 7.56609C96.2017 7.83364 96.2741 8.10167 96.3463 8.36923C96.0843 7.78115 96.2309 8.30125 96.1295 7.56609ZM95.3924 7.00077C95.6019 7.05538 95.8114 7.10998 96.0209 7.16459C95.9873 7.28022 95.9537 7.39585 95.92 7.51148C95.6069 7.55419 95.2937 7.5969 94.9811 7.63996C95.1183 7.42653 95.2551 7.21372 95.3924 7.00077ZM47.6121 2.38195C47.9251 2.33876 48.2378 2.29618 48.551 2.25348C48.59 2.63653 48.6282 3.02033 48.6668 3.40351C47.8636 3.04288 47.8808 3.07637 47.6121 2.38195ZM17.2896 9.78161C17.2197 9.76377 17.1496 9.74545 17.0796 9.72713C16.757 8.77208 16.4343 7.81655 16.1117 6.8615C16.6234 6.30769 16.413 6.45987 16.9273 4.83398C17.1005 4.75463 17.2742 4.67564 17.4473 4.59629C17.8035 5.43571 18.1603 6.27549 18.5166 7.11539C18.1075 8.00381 17.6982 8.89332 17.2896 9.78161ZM26.8289 82.0202C26.8597 81.655 26.891 81.2897 26.9225 80.9248C27.0624 80.9609 27.2019 80.9972 27.3415 81.034C27.1706 81.3626 26.9997 81.6912 26.8289 82.0202Z" fill="#E76933"/>
</svg>
